<?xml version="1.0" standalone="no"?>
<!DOCTYPE svg PUBLIC "-//W3C//DTD SVG 20010904//EN"
 "http://www.w3.org/TR/2001/REC-SVG-20010904/DTD/svg10.dtd">
<svg version="1.0" xmlns="http://www.w3.org/2000/svg"
 width="485.000000pt" height="303.000000pt" viewBox="0 0 485.000000 303.000000"
 preserveAspectRatio="xMidYMid meet">
<metadata>
Created by potrace 1.16, written by Peter Selinger 2001-2019
</metadata>
<g transform="translate(0.000000,303.000000) scale(0.100000,-0.100000)"
fill="#000000" stroke="none">
<path d="M1980 2102 l0 -348 127 -60 c69 -32 130 -60 135 -62 4 -2 8 12 8 31
0 34 -1 35 -100 78 l-100 43 0 278 c0 153 2 278 4 278 15 0 76 -32 76 -41 0
-5 4 -8 9 -4 6 3 43 -11 84 -31 l75 -37 38 18 c31 15 35 19 22 29 -8 6 -17 18
-21 26 -3 8 -6 10 -6 3 -1 -7 -72 22 -167 68 -91 43 -170 79 -175 79 -5 0 -9
-152 -9 -348z"/>
<path d="M2780 2408 c-164 -79 -232 -108 -241 -102 -5 3 -9 0 -9 -5 0 -6 -52
-35 -115 -66 l-114 -55 0 -285 0 -285 34 0 35 0 0 263 0 263 174 83 c96 46
179 80 185 76 6 -3 11 -2 11 4 0 6 14 17 30 26 l30 16 0 -281 0 -281 -57 -25
c-141 -61 -143 -63 -143 -99 l0 -34 128 61 c70 33 130 63 135 67 4 4 6 163 5
354 l-3 346 -85 -41z"/>
<path d="M2503 2148 c-23 -11 -23 -11 -23 -275 l0 -263 35 0 35 0 0 275 c0
292 1 286 -47 263z"/>
<path d="M2413 2138 c-23 -11 -23 -11 -23 -270 l0 -258 35 0 35 0 0 270 c0
287 1 281 -47 258z"/>
<path d="M1076 1308 c-9 -12 -16 -38 -16 -58 0 -20 7 -46 16 -58 14 -20 24
-22 100 -22 77 0 84 -2 84 -20 0 -18 -7 -20 -84 -20 -76 0 -86 -2 -100 -22 -9
-12 -16 -26 -16 -30 0 -5 54 -8 119 -8 113 0 121 1 135 22 9 12 16 38 16 58 0
20 -7 46 -16 58 -14 20 -24 22 -100 22 -77 0 -84 2 -84 20 0 18 7 20 84 20 78
0 85 2 100 25 9 13 16 27 16 30 0 3 -54 5 -119 5 -113 0 -121 -1 -135 -22z"/>
<path d="M1362 1318 c-8 -8 -12 -49 -12 -118 0 -69 4 -110 12 -118 16 -16 220
-16 236 0 7 7 12 20 12 30 0 16 -10 18 -100 18 l-100 0 0 70 0 70 76 0 c74 0
75 1 68 23 -4 12 -12 25 -18 29 -19 13 -161 9 -174 -4z"/>
<path d="M1646 1308 c-12 -17 -16 -49 -16 -131 0 -106 0 -108 22 -105 37 5 48
43 47 156 -1 92 -3 102 -20 102 -10 0 -25 -10 -33 -22z"/>
<path d="M1736 1308 c-12 -17 -16 -49 -16 -130 0 -97 2 -108 18 -108 34 0 42
21 42 112 l0 88 89 0 c83 0 90 2 105 25 9 13 16 27 16 30 0 3 -54 5 -119 5
-113 0 -121 -1 -135 -22z"/>
<path d="M2022 1318 c-8 -8 -12 -52 -12 -130 0 -96 3 -118 14 -118 33 0 46 30
46 106 l0 74 69 -53 c48 -36 70 -59 70 -74 1 -25 26 -53 47 -53 11 0 14 21 14
111 0 117 -9 149 -40 149 -16 0 -19 -8 -22 -50 l-3 -50 -32 22 c-18 13 -33 29
-33 36 0 7 -4 10 -10 7 -5 -3 -20 3 -32 14 -24 23 -58 27 -76 9z"/>
<path d="M2312 1318 c-8 -8 -12 -49 -12 -118 0 -69 4 -110 12 -118 8 -8 48
-12 114 -12 105 0 134 10 134 46 0 11 -20 14 -100 14 l-100 0 0 70 0 70 75 0
c41 0 75 3 75 8 0 4 -7 18 -16 30 -13 19 -24 22 -93 22 -46 0 -82 -5 -89 -12z"/>
<path d="M2600 1320 c-12 -7 -16 -36 -18 -130 -3 -112 -2 -120 15 -120 11 0
24 5 31 12 9 9 12 9 12 0 0 -9 30 -12 105 -12 95 0 104 2 98 18 -12 34 -35 42
-120 42 -67 0 -83 3 -83 15 0 10 10 15 31 15 47 0 88 26 89 58 0 8 -19 12 -60
12 -53 0 -60 2 -60 20 0 18 7 20 83 20 89 0 98 3 116 38 l12 22 -118 0 c-65 0
-125 -5 -133 -10z"/>
<path d="M2879 1313 c-10 -11 -15 -52 -17 -130 -4 -107 -3 -113 16 -113 11 0
25 7 32 15 10 12 15 13 21 3 4 -6 5 7 2 30 l-6 42 69 0 c57 0 73 -4 87 -20 9
-11 24 -20 32 -20 24 0 21 121 -3 143 -26 24 -42 21 -42 -8 0 -24 -2 -25 -71
-25 l-71 0 3 33 c3 55 0 67 -20 67 -10 0 -25 -7 -32 -17z"/>
<path d="M3260 1320 c-12 -7 -16 -36 -18 -130 -3 -112 -2 -120 15 -120 28 0
43 20 43 56 0 30 2 32 47 37 29 3 52 12 60 23 26 35 16 44 -47 44 -53 0 -60 2
-60 20 0 18 7 20 84 20 87 0 116 12 116 46 0 11 -22 14 -112 14 -62 0 -120 -5
-128 -10z"/>
<path d="M3522 1308 c2 -13 27 -48 55 -78 50 -52 53 -58 53 -107 0 -38 4 -53
13 -53 25 0 47 36 47 76 0 34 7 46 50 89 31 31 50 58 50 72 0 37 -42 29 -92
-17 l-43 -39 -25 22 c-13 12 -31 30 -38 40 -7 9 -26 17 -43 17 -26 0 -30 -3
-27 -22z"/>
<path d="M1042 958 c-7 -7 -12 -36 -12 -65 0 -43 4 -54 21 -64 16 -8 82 -8
117 0 1 1 2 32 2 69 l0 68 -58 2 c-34 1 -63 -3 -70 -10z"/>
<path d="M2202 961 c-8 -5 -12 -22 -10 -42 3 -33 5 -34 51 -37 61 -4 61 -20 0
-24 -36 -2 -49 -7 -51 -20 -3 -15 4 -18 50 -18 58 0 83 13 91 45 3 14 5 10 6
-10 l1 -31 71 -3 c63 -2 71 0 65 14 -3 9 -6 19 -6 21 0 2 -24 4 -52 5 -50 1
-51 1 -20 10 41 12 43 39 2 39 -16 0 -30 5 -30 10 0 6 19 10 43 10 40 0 67 13
67 32 0 5 -30 8 -67 6 -67 -3 -68 -3 -71 -33 -3 -30 -22 -61 -22 -37 0 8 -18
12 -50 12 -66 0 -64 18 2 22 41 2 54 7 56 21 3 15 -5 17 -55 17 -32 0 -64 -4
-71 -9z"/>
<path d="M2853 963 c-9 -3 -13 -27 -13 -72 l0 -67 71 -3 c64 -2 70 -1 67 16
-2 14 -15 19 -58 23 l-55 5 38 8 c46 10 45 31 -1 35 -51 5 -37 21 20 24 41 2
54 7 56 21 3 15 -4 17 -55 16 -32 0 -64 -3 -70 -6z"/>
<path d="M3192 958 c-13 -13 -17 -108 -4 -108 4 0 13 5 19 11 8 8 21 4 49 -15
59 -40 116 -32 62 8 -16 12 -19 18 -10 22 18 8 16 81 -4 88 -27 10 -99 7 -112
-6z"/>
<path d="M3352 961 c-17 -11 -19 -105 -2 -125 14 -18 81 -21 111 -6 16 9 19
22 19 74 l0 64 -57 1 c-32 0 -64 -3 -71 -8z"/>
<path d="M3503 963 c-8 -3 -13 -24 -13 -53 0 -41 4 -52 27 -69 23 -19 29 -20
47 -7 18 11 24 11 42 -1 31 -20 74 16 74 63 0 30 3 34 25 34 24 0 25 -3 25
-55 0 -53 1 -55 20 -45 15 8 20 21 20 55 0 41 2 45 25 45 14 0 25 2 25 4 0 2
3 11 6 20 5 13 -5 15 -65 15 -48 0 -76 -5 -85 -15 -8 -8 -20 -14 -26 -14 -8 0
-10 -10 -8 -25 6 -27 -11 -48 -29 -37 -6 4 -13 18 -14 31 -6 38 -27 37 -31 -1
-2 -21 -9 -34 -19 -36 -10 -2 -17 3 -16 10 1 41 -4 88 -10 87 -5 0 -14 -3 -20
-6z"/>
<path d="M1802 762 c-9 -6 -12 -28 -10 -73 l3 -64 67 -3 67 -3 6 33 c4 19 5
52 3 73 l-3 40 -60 3 c-33 1 -66 -2 -73 -6z"/>
<path d="M2162 758 c-16 -16 -15 -65 1 -75 6 -4 32 -10 57 -14 l45 -6 -45 -2
c-43 -1 -70 -14 -70 -33 0 -5 33 -8 73 -6 l72 3 0 40 0 40 -52 3 c-68 4 -68
20 -1 24 41 2 54 7 56 21 3 15 -5 17 -60 17 -37 0 -69 -5 -76 -12z"/>
<path d="M2321 756 c-7 -9 -11 -38 -9 -73 l3 -58 90 0 90 0 3 73 c2 46 -1 72
-8 72 -14 0 -30 -43 -30 -81 0 -29 -1 -29 -55 -29 l-55 0 0 35 c0 34 1 35 40
35 41 0 49 7 28 28 -17 17 -83 15 -97 -2z"/>
<path d="M2520 751 c-5 -11 -10 -44 -10 -74 l0 -55 76 -1 c67 -1 75 0 72 16
-2 14 -16 19 -58 24 -30 3 -44 6 -29 7 25 2 49 18 49 34 0 4 -16 8 -35 8 -55
0 -41 19 17 22 41 2 54 7 56 21 3 15 -5 17 -62 17 -54 0 -67 -3 -76 -19z"/>
<path d="M2841 756 c-7 -9 -11 -38 -9 -73 l3 -58 148 -2 c118 -2 147 1 147 11
0 18 -21 26 -73 27 -28 1 -34 3 -17 6 56 11 67 43 15 43 -55 0 -41 19 17 22
41 2 54 7 56 21 3 15 -5 17 -63 17 -61 0 -66 -2 -75 -26 -6 -14 -10 -39 -10
-55 0 -29 -1 -29 -55 -29 l-55 0 0 35 c0 34 1 35 40 35 41 0 49 7 28 28 -17
17 -83 15 -97 -2z"/>
</g>
</svg>
